Griffith_Gothic-Regular.ufo
<glyph name="numbersign" format="1">
  <advance width="620"/>
  <unicode hex="0023"/>
  <outline>
    <contour>
      <point x="592" y="458" type="line"/>
      <point x="470" y="458" type="line"/>
      <point x="437" y="262" type="line"/>
      <point x="558" y="262" type="line"/>
      <point x="558" y="191" type="line"/>
      <point x="425" y="191" type="line"/>
      <point x="393" y="0" type="line"/>
      <point x="339" y="0" type="line"/>
      <point x="371" y="191" type="line"/>
      <point x="192" y="191" type="line"/>
      <point x="160" y="0" type="line"/>
      <point x="106" y="0" type="line"/>
      <point x="138" y="191" type="line"/>
      <point x="28" y="191" type="line"/>
      <point x="28" y="262" type="line"/>
      <point x="150" y="262" type="line"/>
      <point x="183" y="458" type="line"/>
      <point x="62" y="458" type="line"/>
      <point x="62" y="529" type="line"/>
      <point x="195" y="529" type="line"/>
      <point x="227" y="720" type="line"/>
      <point x="281" y="720" type="line"/>
      <point x="250" y="529" type="line"/>
      <point x="428" y="529" type="line"/>
      <point x="460" y="720" type="line"/>
      <point x="514" y="720" type="line"/>
      <point x="482" y="529" type="line"/>
      <point x="592" y="529" type="line"/>
    </contour>
    <contour>
      <point x="417" y="459" type="line"/>
      <point x="237" y="459" type="line"/>
      <point x="204" y="261" type="line"/>
      <point x="383" y="261" type="line"/>
    </contour>
  </outline>
</glyph>
<glyph name="ampersand" format="1">
  <advance width="683"/>
  <unicode hex="0026"/>
  <outline>
    <contour>
      <point x="683" y="2" type="line"/>
      <point x="662" y="-3"/>
      <point x="646" y="-6"/>
      <point x="621" y="-6" type="curve" smooth="yes"/>
      <point x="559" y="-6"/>
      <point x="517" y="11"/>
      <point x="456" y="74" type="curve"/>
      <point x="398" y="20"/>
      <point x="330" y="-10"/>
      <point x="256" y="-10" type="curve" smooth="yes"/>
      <point x="121" y="-10"/>
      <point x="30" y="71"/>
      <point x="30" y="194" type="curve" smooth="yes"/>
      <point x="30" y="283"/>
      <point x="71" y="350"/>
      <point x="198" y="416" type="curve"/>
      <point x="160" y="475"/>
      <point x="138" y="527"/>
      <point x="138" y="580" type="curve" smooth="yes"/>
      <point x="138" y="668"/>
      <point x="204" y="732"/>
      <point x="301" y="732" type="curve" smooth="yes"/>
      <point x="395" y="732"/>
      <point x="446" y="664"/>
      <point x="446" y="588" type="curve" smooth="yes"/>
      <point x="446" y="511"/>
      <point x="393" y="454"/>
      <point x="301" y="404" type="curve"/>
      <point x="367" y="306"/>
      <point x="416" y="240"/>
      <point x="465" y="181" type="curve"/>
      <point x="507" y="239"/>
      <point x="543" y="313"/>
      <point x="569" y="397" type="curve"/>
      <point x="637" y="367" type="line"/>
      <point x="604" y="273"/>
      <point x="560" y="192"/>
      <point x="510" y="129" type="curve"/>
      <point x="561" y="73"/>
      <point x="592" y="60"/>
      <point x="625" y="60" type="curve" smooth="yes"/>
      <point x="651" y="60"/>
      <point x="665" y="63"/>
      <point x="683" y="69" type="curve"/>
    </contour>
    <contour>
      <point x="371" y="586" type="curve" smooth="yes"/>
      <point x="371" y="637"/>
      <point x="346" y="676"/>
      <point x="299" y="676" type="curve" smooth="yes"/>
      <point x="242" y="676"/>
      <point x="215" y="635"/>
      <point x="215" y="584" type="curve" smooth="yes"/>
      <point x="215" y="542"/>
      <point x="232" y="499"/>
      <point x="265" y="449" type="curve"/>
      <point x="342" y="491"/>
      <point x="371" y="534"/>
    </contour>
    <contour>
      <point x="412" y="123" type="curve"/>
      <point x="364" y="181"/>
      <point x="304" y="259"/>
      <point x="232" y="366" type="curve"/>
      <point x="148" y="319"/>
      <point x="117" y="268"/>
      <point x="117" y="204" type="curve" smooth="yes"/>
      <point x="117" y="120"/>
      <point x="177" y="55"/>
      <point x="265" y="55" type="curve" smooth="yes"/>
      <point x="319" y="55"/>
      <point x="368" y="80"/>
    </contour>
  </outline>
</glyph>
<glyph name="parenright" format="1">
  <advance width="329"/>
  <unicode hex="0029"/>
  <outline>
    <contour>
      <point x="276" y="320" type="curve" smooth="yes"/>
      <point x="276" y="135"/>
      <point x="194" y="2"/>
      <point x="104" y="-95" type="curve"/>
      <point x="27" y="-95" type="line"/>
      <point x="126" y="24"/>
      <point x="182" y="156"/>
      <point x="182" y="320" type="curve" smooth="yes"/>
      <point x="182" y="484"/>
      <point x="126" y="616"/>
      <point x="27" y="735" type="curve"/>
      <point x="104" y="735" type="line"/>
      <point x="194" y="638"/>
      <point x="276" y="505"/>
    </contour>
  </outline>
</glyph>
<glyph name="asterisk" format="1">
  <advance width="440"/>
  <unicode hex="002A"/>
  <outline>
    <contour>
      <point x="404" y="562" type="line"/>
      <point x="247" y="536" type="line"/>
      <point x="362" y="424" type="line"/>
      <point x="296" y="375" type="line"/>
      <point x="220" y="520" type="line"/>
      <point x="145" y="375" type="line"/>
      <point x="79" y="424" type="line"/>
      <point x="193" y="536" type="line"/>
      <point x="36" y="562" type="line"/>
      <point x="62" y="639" type="line"/>
      <point x="204" y="564" type="line"/>
      <point x="179" y="720" type="line"/>
      <point x="261" y="720" type="line"/>
      <point x="236" y="564" type="line"/>
      <point x="378" y="638" type="line"/>
    </contour>
  </outline>
</glyph>
<glyph name="zero" format="1">
  <advance width="602"/>
  <unicode hex="0030"/>
  <outline>
    <contour>
      <point x="553" y="346" type="line" smooth="yes"/>
      <point x="553" y="125"/>
      <point x="457" y="-12"/>
      <point x="301" y="-12" type="curve" smooth="yes"/>
      <point x="145" y="-12"/>
      <point x="48" y="124"/>
      <point x="48" y="345" type="curve" smooth="yes"/>
      <point x="48" y="374" type="line" smooth="yes"/>
      <point x="48" y="595"/>
      <point x="145" y="732"/>
      <point x="301" y="732" type="curve" smooth="yes"/>
      <point x="457" y="732"/>
      <point x="553" y="596"/>
      <point x="553" y="375" type="curve" smooth="yes"/>
    </contour>
    <contour>
      <point x="459" y="337" type="curve" smooth="yes"/>
      <point x="459" y="381" type="line" smooth="yes"/>
      <point x="459" y="542"/>
      <point x="407" y="660"/>
      <point x="301" y="660" type="curve" smooth="yes"/>
      <point x="194" y="660"/>
      <point x="143" y="543"/>
      <point x="143" y="383" type="curve" smooth="yes"/>
      <point x="143" y="339" type="line" smooth="yes"/>
      <point x="143" y="178"/>
      <point x="194" y="60"/>
      <point x="301" y="60" type="curve" smooth="yes"/>
      <point x="407" y="60"/>
      <point x="459" y="176"/>
    </contour>
  </outline>
</glyph>
<glyph name="one" format="1">
  <advance width="446"/>
  <unicode hex="0031"/>
  <outline>
    <contour>
      <point x="423" y="0" type="line"/>
      <point x="49" y="0" type="line"/>
      <point x="49" y="61" type="line"/>
      <point x="193" y="61" type="line"/>
      <point x="193" y="659" type="line"/>
      <point x="37" y="659" type="line"/>
      <point x="37" y="720" type="line"/>
      <point x="283" y="720" type="line"/>
      <point x="283" y="61" type="line"/>
      <point x="423" y="61" type="line"/>
    </contour>
  </outline>
</glyph>
<glyph name="two" format="1">
  <advance width="557"/>
  <unicode hex="0032"/>
  <outline>
    <contour>
      <point x="505" y="0" type="line"/>
      <point x="54" y="0" type="line"/>
      <point x="54" y="58" type="line"/>
      <point x="90" y="169"/>
      <point x="154" y="242"/>
      <point x="277" y="336" type="curve" smooth="yes"/>
      <point x="363" y="401"/>
      <point x="407" y="449"/>
      <point x="407" y="528" type="curve" smooth="yes"/>
      <point x="407" y="606"/>
      <point x="363" y="662"/>
      <point x="280" y="662" type="curve" smooth="yes"/>
      <point x="207" y="662"/>
      <point x="162" y="622"/>
      <point x="117" y="528" type="curve"/>
      <point x="47" y="561" type="line"/>
      <point x="98" y="670"/>
      <point x="170" y="732"/>
      <point x="284" y="732" type="curve" smooth="yes"/>
      <point x="428" y="732"/>
      <point x="496" y="644"/>
      <point x="496" y="531" type="curve" smooth="yes"/>
      <point x="496" y="419"/>
      <point x="439" y="362"/>
      <point x="330" y="283" type="curve" smooth="yes"/>
      <point x="227" y="208"/>
      <point x="171" y="148"/>
      <point x="147" y="69" type="curve"/>
      <point x="505" y="69" type="line"/>
    </contour>
  </outline>
</glyph>
<glyph name="four" format="1">
  <advance width="585"/>
  <unicode hex="0034"/>
  <outline>
    <contour>
      <point x="551" y="197" type="line"/>
      <point x="456" y="197" type="line"/>
      <point x="456" y="0" type="line"/>
      <point x="366" y="0" type="line"/>
      <point x="366" y="197" type="line"/>
      <point x="36" y="197" type="line"/>
      <point x="36" y="274" type="line"/>
      <point x="332" y="720" type="line"/>
      <point x="456" y="720" type="line"/>
      <point x="456" y="254" type="line"/>
      <point x="551" y="254" type="line"/>
    </contour>
    <contour>
      <point x="366" y="254" type="line"/>
      <point x="366" y="645" type="line"/>
      <point x="354" y="645" type="line"/>
      <point x="102" y="266" type="line"/>
      <point x="102" y="254" type="line"/>
    </contour>
  </outline>
</glyph>
<glyph name="colon" format="1">
  <advance width="215"/>
  <unicode hex="003A"/>
  <outline>
    <contour>
      <point x="167" y="467" type="curve" smooth="yes"/>
      <point x="167" y="433"/>
      <point x="142" y="408"/>
      <point x="108" y="408" type="curve" smooth="yes"/>
      <point x="74" y="408"/>
      <point x="49" y="433"/>
      <point x="49" y="467" type="curve" smooth="yes"/>
      <point x="49" y="501"/>
      <point x="74" y="526"/>
      <point x="108" y="526" type="curve" smooth="yes"/>
      <point x="142" y="526"/>
      <point x="167" y="501"/>
    </contour>
    <contour>
      <point x="167" y="52" type="curve" smooth="yes"/>
      <point x="167" y="18"/>
      <point x="142" y="-7"/>
      <point x="108" y="-7" type="curve" smooth="yes"/>
      <point x="74" y="-7"/>
      <point x="49" y="18"/>
      <point x="49" y="52" type="curve" smooth="yes"/>
      <point x="49" y="85"/>
      <point x="74" y="110"/>
      <point x="108" y="110" type="curve" smooth="yes"/>
      <point x="142" y="110"/>
      <point x="167" y="85"/>
    </contour>
  </outline>
</glyph>
<glyph name="less" format="1">
  <advance width="600"/>
  <unicode hex="003C"/>
  <outline>
    <contour>
      <point x="546" y="95" type="line"/>
      <point x="47" y="317" type="line"/>
      <point x="47" y="393" type="line"/>
      <point x="546" y="615" type="line"/>
      <point x="546" y="534" type="line"/>
      <point x="133" y="355" type="line"/>
      <point x="546" y="176" type="line"/>
    </contour>
  </outline>
</glyph>
<glyph name="question" format="1">
  <advance width="456"/>
  <unicode hex="003F"/>
  <outline>
    <contour>
      <point x="414" y="566" type="curve" smooth="yes"/>
      <point x="414" y="486"/>
      <point x="383" y="448"/>
      <point x="310" y="383" type="curve" smooth="yes"/>
      <point x="254" y="332"/>
      <point x="237" y="302"/>
      <point x="235" y="214" type="curve"/>
      <point x="178" y="214" type="line"/>
      <point x="173" y="328"/>
      <point x="187" y="367"/>
      <point x="253" y="428" type="curve" smooth="yes"/>
      <point x="303" y="475"/>
      <point x="324" y="512"/>
      <point x="324" y="562" type="curve" smooth="yes"/>
      <point x="324" y="620"/>
      <point x="288" y="662"/>
      <point x="225" y="662" type="curve" smooth="yes"/>
      <point x="158" y="662"/>
      <point x="121" y="629"/>
      <point x="87" y="552" type="curve"/>
      <point x="19" y="583" type="line"/>
      <point x="58" y="677"/>
      <point x="119" y="732"/>
      <point x="229" y="732" type="curve" smooth="yes"/>
      <point x="345" y="732"/>
      <point x="414" y="660"/>
    </contour>
    <contour>
      <point x="263" y="50" type="curve" smooth="yes"/>
      <point x="263" y="18"/>
      <point x="239" y="-7"/>
      <point x="206" y="-7" type="curve" smooth="yes"/>
      <point x="174" y="-7"/>
      <point x="149" y="18"/>
      <point x="149" y="50" type="curve" smooth="yes"/>
      <point x="149" y="83"/>
      <point x="174" y="107"/>
      <point x="206" y="107" type="curve" smooth="yes"/>
      <point x="239" y="107"/>
      <point x="263" y="83"/>
    </contour>
  </outline>
</glyph>
<glyph name="at" format="1">
  <advance width="1001"/>
  <unicode hex="0040"/>
  <outline>
    <contour>
      <point x="945" y="333" type="curve" smooth="yes"/>
      <point x="945" y="152"/>
      <point x="832" y="29"/>
      <point x="711" y="29" type="curve" smooth="yes"/>
      <point x="631" y="29"/>
      <point x="591" y="77"/>
      <point x="585" y="150" type="curve"/>
      <point x="580" y="150" type="line"/>
      <point x="535" y="74"/>
      <point x="477" y="29"/>
      <point x="415" y="29" type="curve" smooth="yes"/>
      <point x="337" y="29"/>
      <point x="286" y="92"/>
      <point x="286" y="198" type="curve" smooth="yes"/>
      <point x="286" y="357"/>
      <point x="365" y="515"/>
      <point x="481" y="515" type="curve" smooth="yes"/>
      <point x="552" y="515"/>
      <point x="588" y="466"/>
      <point x="611" y="399" type="curve"/>
      <point x="615" y="398" type="line"/>
      <point x="635" y="514" type="line"/>
      <point x="712" y="494" type="line"/>
      <point x="658" y="190" type="line" smooth="yes"/>
      <point x="646" y="122"/>
      <point x="667" y="67"/>
      <point x="733" y="67" type="curve" smooth="yes"/>
      <point x="820" y="67"/>
      <point x="905" y="179"/>
      <point x="905" y="331" type="curve" smooth="yes"/>
      <point x="905" y="557"/>
      <point x="745" y="698"/>
      <point x="518" y="698" type="curve" smooth="yes"/>
      <point x="281" y="698"/>
      <point x="97" y="507"/>
      <point x="97" y="266" type="curve" smooth="yes"/>
      <point x="97" y="12"/>
      <point x="261" y="-158"/>
      <point x="509" y="-158" type="curve" smooth="yes"/>
      <point x="630" y="-158"/>
      <point x="715" y="-134"/>
      <point x="805" y="-85" type="curve"/>
      <point x="822" y="-114" type="line"/>
      <point x="729" y="-164"/>
      <point x="637" y="-192"/>
      <point x="507" y="-192" type="curve" smooth="yes"/>
      <point x="237" y="-192"/>
      <point x="57" y="-10"/>
      <point x="57" y="265" type="curve" smooth="yes"/>
      <point x="57" y="529"/>
      <point x="267" y="732"/>
      <point x="521" y="732" type="curve" smooth="yes"/>
      <point x="760" y="732"/>
      <point x="945" y="574"/>
    </contour>
    <contour>
      <point x="600" y="321" type="curve" smooth="yes"/>
      <point x="600" y="389"/>
      <point x="563" y="457"/>
      <point x="504" y="457" type="curve" smooth="yes"/>
      <point x="427" y="457"/>
      <point x="367" y="344"/>
      <point x="367" y="203" type="curve" smooth="yes"/>
      <point x="367" y="130"/>
      <point x="396" y="82"/>
      <point x="449" y="82" type="curve" smooth="yes"/>
      <point x="525" y="82"/>
      <point x="600" y="207"/>
    </contour>
  </outline>
</glyph>
<glyph name="A" format="1">
  <advance width="671"/>
  <unicode hex="0041"/>
  <outline>
    <contour>
      <point x="646" y="0" type="line"/>
      <point x="551" y="0" type="line"/>
      <point x="490" y="185" type="line"/>
      <point x="178" y="185" type="line"/>
      <point x="117" y="0" type="line"/>
      <point x="25" y="0" type="line"/>
      <point x="273" y="723" type="line"/>
      <point x="398" y="723" type="line"/>
    </contour>
    <contour>
      <point x="472" y="250" type="line"/>
      <point x="338" y="652" type="line"/>
      <point x="330" y="652" type="line"/>
      <point x="196" y="250" type="line"/>
    </contour>
  </outline>
</glyph>
<glyph name="D" format="1">
  <advance width="626"/>
  <unicode hex="0044"/>
  <outline>
    <contour>
      <point x="577" y="352" type="line" smooth="yes"/>
      <point x="577" y="128"/>
      <point x="462" y="0"/>
      <point x="267" y="0" type="curve" smooth="yes"/>
      <point x="78" y="0" type="line"/>
      <point x="78" y="720" type="line"/>
      <point x="270" y="720" type="line" smooth="yes"/>
      <point x="467" y="720"/>
      <point x="577" y="592"/>
      <point x="577" y="369" type="curve" smooth="yes"/>
    </contour>
    <contour>
      <point x="481" y="345" type="curve" smooth="yes"/>
      <point x="481" y="374" type="line" smooth="yes"/>
      <point x="481" y="553"/>
      <point x="406" y="648"/>
      <point x="264" y="648" type="curve" smooth="yes"/>
      <point x="170" y="648" type="line"/>
      <point x="170" y="72" type="line"/>
      <point x="268" y="72" type="line" smooth="yes"/>
      <point x="403" y="72"/>
      <point x="481" y="167"/>
    </contour>
  </outline>
</glyph>
<glyph name="E" format="1">
  <advance width="558"/>
  <unicode hex="0045"/>
  <outline>
    <contour>
      <point x="521" y="0" type="line"/>
      <point x="78" y="0" type="line"/>
      <point x="78" y="720" type="line"/>
      <point x="509" y="720" type="line"/>
      <point x="509" y="647" type="line"/>
      <point x="170" y="647" type="line"/>
      <point x="170" y="411" type="line"/>
      <point x="446" y="411" type="line"/>
      <point x="446" y="340" type="line"/>
      <point x="170" y="340" type="line"/>
      <point x="170" y="73" type="line"/>
      <point x="521" y="73" type="line"/>
    </contour>
  </outline>
</glyph>
<glyph name="F" format="1">
  <advance width="527"/>
  <unicode hex="0046"/>
  <outline>
    <contour>
      <point x="504" y="647" type="line"/>
      <point x="171" y="647" type="line"/>
      <point x="171" y="394" type="line"/>
      <point x="432" y="394" type="line"/>
      <point x="432" y="322" type="line"/>
      <point x="171" y="322" type="line"/>
      <point x="171" y="0" type="line"/>
      <point x="78" y="0" type="line"/>
      <point x="78" y="720" type="line"/>
      <point x="504" y="720" type="line"/>
    </contour>
  </outline>
</glyph>
<glyph name="G" format="1">
  <advance width="626"/>
  <unicode hex="0047"/>
  <outline>
    <contour>
      <point x="571" y="-1" type="line"/>
      <point x="526" y="-1" type="line"/>
      <point x="517" y="192" type="line"/>
      <point x="512" y="192" type="line"/>
      <point x="480" y="67"/>
      <point x="419" y="-12"/>
      <point x="302" y="-12" type="curve" smooth="yes"/>
      <point x="146" y="-12"/>
      <point x="49" y="125"/>
      <point x="49" y="348" type="curve" smooth="yes"/>
      <point x="49" y="370" type="line" smooth="yes"/>
      <point x="49" y="594"/>
      <point x="150" y="732"/>
      <point x="310" y="732" type="curve" smooth="yes"/>
      <point x="443" y="732"/>
      <point x="514" y="652"/>
      <point x="546" y="534" type="curve"/>
      <point x="459" y="509" type="line"/>
      <point x="434" y="604"/>
      <point x="389" y="660"/>
      <point x="310" y="660" type="curve" smooth="yes"/>
      <point x="200" y="660"/>
      <point x="145" y="545"/>
      <point x="145" y="380" type="curve" smooth="yes"/>
      <point x="145" y="342" type="line" smooth="yes"/>
      <point x="145" y="174"/>
      <point x="204" y="60"/>
      <point x="310" y="60" type="curve" smooth="yes"/>
      <point x="406" y="60"/>
      <point x="455" y="143"/>
      <point x="469" y="290" type="curve"/>
      <point x="318" y="290" type="line"/>
      <point x="318" y="338" type="line"/>
      <point x="571" y="338" type="line"/>
    </contour>
  </outline>
</glyph>
<glyph name="H" format="1">
  <advance width="632"/>
  <unicode hex="0048"/>
  <outline>
    <contour>
      <point x="555" y="0" type="line"/>
      <point x="461" y="0" type="line"/>
      <point x="461" y="336" type="line"/>
      <point x="171" y="336" type="line"/>
      <point x="171" y="0" type="line"/>
      <point x="78" y="0" type="line"/>
      <point x="78" y="720" type="line"/>
      <point x="171" y="720" type="line"/>
      <point x="171" y="415" type="line"/>
      <point x="461" y="415" type="line"/>
      <point x="461" y="720" type="line"/>
      <point x="555" y="720" type="line"/>
    </contour>
  </outline>
</glyph>
<glyph name="J" format="1">
  <advance width="499"/>
  <unicode hex="004A"/>
  <outline>
    <contour>
      <point x="428" y="208" type="line" smooth="yes"/>
      <point x="428" y="68"/>
      <point x="356" y="-12"/>
      <point x="225" y="-12" type="curve" smooth="yes"/>
      <point x="100" y="-12"/>
      <point x="27" y="50"/>
      <point x="22" y="190" type="curve"/>
      <point x="110" y="213" type="line"/>
      <point x="112" y="97"/>
      <point x="160" y="62"/>
      <point x="227" y="62" type="curve" smooth="yes"/>
      <point x="292" y="62"/>
      <point x="334" y="105"/>
      <point x="334" y="204" type="curve" smooth="yes"/>
      <point x="334" y="720" type="line"/>
      <point x="428" y="720" type="line"/>
    </contour>
  </outline>
</glyph>
<glyph name="K" format="1">
  <advance width="606"/>
  <unicode hex="004B"/>
  <outline>
    <contour>
      <point x="608" y="0" type="line"/>
      <point x="500" y="0" type="line"/>
      <point x="200" y="388" type="line"/>
      <point x="200" y="390" type="line"/>
      <point x="485" y="720" type="line"/>
      <point x="591" y="720" type="line"/>
      <point x="301" y="393" type="line"/>
    </contour>
    <contour>
      <point x="171" y="0" type="line"/>
      <point x="78" y="0" type="line"/>
      <point x="78" y="720" type="line"/>
      <point x="171" y="720" type="line"/>
    </contour>
  </outline>
</glyph>
<glyph name="L" format="1">
  <advance width="515"/>
  <unicode hex="004C"/>
  <outline>
    <contour>
      <point x="497" y="0" type="line"/>
      <point x="78" y="0" type="line"/>
      <point x="78" y="720" type="line"/>
      <point x="171" y="720" type="line"/>
      <point x="171" y="77" type="line"/>
      <point x="497" y="77" type="line"/>
    </contour>
  </outline>
</glyph>
<glyph name="M" format="1">
  <advance width="844"/>
  <unicode hex="004D"/>
  <outline>
    <contour>
      <point x="766" y="0" type="line"/>
      <point x="678" y="0" type="line"/>
      <point x="678" y="627" type="line"/>
      <point x="669" y="627" type="line"/>
      <point x="470" y="0" type="line"/>
      <point x="370" y="0" type="line"/>
      <point x="172" y="627" type="line"/>
      <point x="163" y="627" type="line"/>
      <point x="163" y="0" type="line"/>
      <point x="78" y="0" type="line"/>
      <point x="78" y="720" type="line"/>
      <point x="231" y="720" type="line"/>
      <point x="420" y="115" type="line"/>
      <point x="427" y="115" type="line"/>
      <point x="616" y="720" type="line"/>
      <point x="766" y="720" type="line"/>
    </contour>
  </outline>
</glyph>
<glyph name="P" format="1">
  <advance width="576"/>
  <unicode hex="0050"/>
  <outline>
    <contour>
      <point x="541" y="512" type="curve" smooth="yes"/>
      <point x="541" y="374"/>
      <point x="452" y="298"/>
      <point x="293" y="298" type="curve" smooth="yes"/>
      <point x="171" y="298" type="line"/>
      <point x="171" y="0" type="line"/>
      <point x="78" y="0" type="line"/>
      <point x="78" y="720" type="line"/>
      <point x="299" y="720" type="line" smooth="yes"/>
      <point x="450" y="720"/>
      <point x="541" y="649"/>
    </contour>
    <contour>
      <point x="448" y="510" type="curve" smooth="yes"/>
      <point x="448" y="601"/>
      <point x="394" y="651"/>
      <point x="290" y="651" type="curve" smooth="yes"/>
      <point x="168" y="651" type="line"/>
      <point x="168" y="369" type="line"/>
      <point x="293" y="369" type="line" smooth="yes"/>
      <point x="392" y="369"/>
      <point x="448" y="417"/>
    </contour>
  </outline>
</glyph>
<glyph name="Q" format="1">
  <advance width="624"/>
  <unicode hex="0051"/>
  <outline>
    <contour>
      <point x="613" y="-103" type="line"/>
      <point x="600" y="-107"/>
      <point x="586" y="-108"/>
      <point x="571" y="-108" type="curve" smooth="yes"/>
      <point x="518" y="-108"/>
      <point x="488" y="-93"/>
      <point x="455" y="-43" type="curve" smooth="yes"/>
      <point x="418" y="12" type="line"/>
      <point x="390" y="-3"/>
      <point x="353" y="-12"/>
      <point x="312" y="-12" type="curve" smooth="yes"/>
      <point x="149" y="-12"/>
      <point x="49" y="125"/>
      <point x="49" y="348" type="curve" smooth="yes"/>
      <point x="49" y="370" type="line" smooth="yes"/>
      <point x="49" y="594"/>
      <point x="149" y="732"/>
      <point x="312" y="732" type="curve" smooth="yes"/>
      <point x="476" y="732"/>
      <point x="575" y="595"/>
      <point x="575" y="372" type="curve" smooth="yes"/>
      <point x="575" y="350" type="line" smooth="yes"/>
      <point x="575" y="200"/>
      <point x="531" y="101"/>
      <point x="468" y="44" type="curve"/>
      <point x="504" y="-6" type="line" smooth="yes"/>
      <point x="524" y="-33"/>
      <point x="543" y="-45"/>
      <point x="574" y="-45" type="curve" smooth="yes"/>
      <point x="586" y="-45"/>
      <point x="600" y="-43"/>
      <point x="613" y="-40" type="curve"/>
    </contour>
    <contour>
      <point x="479" y="334" type="curve" smooth="yes"/>
      <point x="479" y="378" type="line" smooth="yes"/>
      <point x="479" y="544"/>
      <point x="425" y="660"/>
      <point x="312" y="660" type="curve" smooth="yes"/>
      <point x="199" y="660"/>
      <point x="145" y="545"/>
      <point x="145" y="380" type="curve" smooth="yes"/>
      <point x="145" y="336" type="line" smooth="yes"/>
      <point x="145" y="169"/>
      <point x="199" y="54"/>
      <point x="312" y="54" type="curve" smooth="yes"/>
      <point x="341" y="54"/>
      <point x="364" y="60"/>
      <point x="382" y="71" type="curve"/>
      <point x="294" y="201" type="line"/>
      <point x="331" y="225" type="line"/>
      <point x="419" y="106" type="line"/>
      <point x="460" y="152"/>
      <point x="479" y="236"/>
    </contour>
  </outline>
</glyph>
<glyph name="R" format="1">
  <advance width="604"/>
  <unicode hex="0052"/>
  <outline>
    <contour>
      <point x="572" y="0" type="line"/>
      <point x="469" y="0" type="line"/>
      <point x="278" y="312" type="line"/>
      <point x="171" y="312" type="line"/>
      <point x="171" y="0" type="line"/>
      <point x="78" y="0" type="line"/>
      <point x="78" y="720" type="line"/>
      <point x="310" y="720" type="line" smooth="yes"/>
      <point x="460" y="720"/>
      <point x="549" y="653"/>
      <point x="549" y="517" type="curve" smooth="yes"/>
      <point x="549" y="406"/>
      <point x="486" y="339"/>
      <point x="370" y="323" type="curve"/>
    </contour>
    <contour>
      <point x="456" y="515" type="curve" smooth="yes"/>
      <point x="456" y="606"/>
      <point x="402" y="651"/>
      <point x="298" y="651" type="curve" smooth="yes"/>
      <point x="168" y="651" type="line"/>
      <point x="168" y="379" type="line"/>
      <point x="301" y="379" type="line" smooth="yes"/>
      <point x="401" y="379"/>
      <point x="456" y="422"/>
    </contour>
  </outline>
</glyph>
<glyph name="T" format="1">
  <advance width="569"/>
  <unicode hex="0054"/>
  <outline>
    <contour>
      <point x="550" y="643" type="line"/>
      <point x="331" y="643" type="line"/>
      <point x="331" y="0" type="line"/>
      <point x="238" y="0" type="line"/>
      <point x="238" y="643" type="line"/>
      <point x="19" y="643" type="line"/>
      <point x="19" y="720" type="line"/>
      <point x="550" y="720" type="line"/>
    </contour>
  </outline>
</glyph>
<glyph name="V" format="1">
  <advance width="627"/>
  <unicode hex="0056"/>
  <outline>
    <contour>
      <point x="602" y="720" type="line"/>
      <point x="367" y="-6" type="line"/>
      <point x="260" y="-6" type="line"/>
      <point x="25" y="720" type="line"/>
      <point x="122" y="720" type="line"/>
      <point x="313" y="91" type="line"/>
      <point x="318" y="91" type="line"/>
      <point x="509" y="720" type="line"/>
    </contour>
  </outline>
</glyph>
<glyph name="Z" format="1">
  <advance width="552"/>
  <unicode hex="005A"/>
  <outline>
    <contour>
      <point x="517" y="0" type="line"/>
      <point x="34" y="0" type="line"/>
      <point x="34" y="64" type="line"/>
      <point x="411" y="647" type="line"/>
      <point x="53" y="647" type="line"/>
      <point x="53" y="720" type="line"/>
      <point x="517" y="720" type="line"/>
      <point x="517" y="656" type="line"/>
      <point x="141" y="73" type="line"/>
      <point x="517" y="73" type="line"/>
    </contour>
  </outline>
</glyph>
<glyph name="bracketright" format="1">
  <advance width="351"/>
  <unicode hex="005D"/>
  <outline>
    <contour>
      <point x="285" y="-89" type="line"/>
      <point x="24" y="-80" type="line"/>
      <point x="24" y="-35" type="line"/>
      <point x="201" y="-42" type="line"/>
      <point x="201" y="682" type="line"/>
      <point x="24" y="675" type="line"/>
      <point x="24" y="720" type="line"/>
      <point x="285" y="729" type="line"/>
    </contour>
  </outline>
</glyph>
<glyph name="b" format="1">
  <advance width="522"/>
  <unicode hex="0062"/>
  <outline>
    <contour>
      <point x="482" y="256" type="line" smooth="yes"/>
      <point x="482" y="84"/>
      <point x="403" y="-9"/>
      <point x="310" y="-9" type="curve" smooth="yes"/>
      <point x="240" y="-9"/>
      <point x="195" y="36"/>
      <point x="158" y="107" type="curve"/>
      <point x="152" y="107" type="line"/>
      <point x="152" y="-9" type="line"/>
      <point x="65" y="14" type="line"/>
      <point x="65" y="737" type="line"/>
      <point x="152" y="760" type="line"/>
      <point x="152" y="412" type="line"/>
      <point x="158" y="412" type="line"/>
      <point x="198" y="484"/>
      <point x="240" y="530"/>
      <point x="312" y="530" type="curve" smooth="yes"/>
      <point x="410" y="530"/>
      <point x="482" y="440"/>
      <point x="482" y="267" type="curve" smooth="yes"/>
    </contour>
    <contour>
      <point x="396" y="259" type="curve" smooth="yes"/>
      <point x="396" y="410"/>
      <point x="341" y="470"/>
      <point x="279" y="470" type="curve" smooth="yes"/>
      <point x="206" y="470"/>
      <point x="150" y="377"/>
      <point x="150" y="260" type="curve" smooth="yes"/>
      <point x="150" y="144"/>
      <point x="205" y="51"/>
      <point x="280" y="51" type="curve" smooth="yes"/>
      <point x="343" y="51"/>
      <point x="396" y="115"/>
    </contour>
  </outline>
</glyph>
<glyph name="c" format="1">
  <advance width="456"/>
  <unicode hex="0063"/>
  <outline>
    <contour>
      <point x="428" y="130" type="line"/>
      <point x="398" y="40"/>
      <point x="337" y="-10"/>
      <point x="245" y="-10" type="curve" smooth="yes"/>
      <point x="119" y="-10"/>
      <point x="39" y="94"/>
      <point x="39" y="254" type="curve" smooth="yes"/>
      <point x="39" y="265" type="line" smooth="yes"/>
      <point x="39" y="423"/>
      <point x="120" y="531"/>
      <point x="249" y="531" type="curve" smooth="yes"/>
      <point x="342" y="531"/>
      <point x="397" y="482"/>
      <point x="425" y="393" type="curve"/>
      <point x="350" y="373" type="line"/>
      <point x="329" y="437"/>
      <point x="302" y="470"/>
      <point x="247" y="470" type="curve" smooth="yes"/>
      <point x="170" y="470"/>
      <point x="126" y="392"/>
      <point x="126" y="264" type="curve" smooth="yes"/>
      <point x="126" y="258" type="line" smooth="yes"/>
      <point x="126" y="129"/>
      <point x="170" y="50"/>
      <point x="248" y="50" type="curve" smooth="yes"/>
      <point x="300" y="50"/>
      <point x="330" y="82"/>
      <point x="355" y="150" type="curve"/>
    </contour>
  </outline>
</glyph>
<glyph name="j" format="1">
  <advance width="233"/>
  <unicode hex="006A"/>
  <outline>
    <contour>
      <point x="168" y="630" type="line"/>
      <point x="66" y="630" type="line"/>
      <point x="66" y="723" type="line"/>
      <point x="168" y="723" type="line"/>
    </contour>
    <contour>
      <point x="160" y="-51" type="line" smooth="yes"/>
      <point x="160" y="-150"/>
      <point x="114" y="-190"/>
      <point x="29" y="-190" type="curve" smooth="yes"/>
      <point x="-2" y="-190"/>
      <point x="-20" y="-186"/>
      <point x="-41" y="-179" type="curve"/>
      <point x="-41" y="-121" type="line"/>
      <point x="-22" y="-128"/>
      <point x="-8" y="-131"/>
      <point x="13" y="-131" type="curve" smooth="yes"/>
      <point x="50" y="-131"/>
      <point x="73" y="-111"/>
      <point x="73" y="-57" type="curve" smooth="yes"/>
      <point x="73" y="521" type="line"/>
      <point x="160" y="521" type="line"/>
    </contour>
  </outline>
</glyph>
<glyph name="n" format="1">
  <advance width="506"/>
  <unicode hex="006E"/>
  <outline>
    <contour>
      <point x="444" y="0" type="line"/>
      <point x="357" y="0" type="line"/>
      <point x="357" y="385" type="line" smooth="yes"/>
      <point x="357" y="436"/>
      <point x="335" y="463"/>
      <point x="292" y="463" type="curve" smooth="yes"/>
      <point x="248" y="463"/>
      <point x="198" y="424"/>
      <point x="152" y="354" type="curve"/>
      <point x="152" y="0" type="line"/>
      <point x="65" y="0" type="line"/>
      <point x="65" y="507" type="line"/>
      <point x="152" y="530" type="line"/>
      <point x="152" y="401" type="line"/>
      <point x="158" y="401" type="line"/>
      <point x="213" y="478"/>
      <point x="267" y="526"/>
      <point x="337" y="526" type="curve" smooth="yes"/>
      <point x="409" y="526"/>
      <point x="444" y="479"/>
      <point x="444" y="404" type="curve" smooth="yes"/>
    </contour>
  </outline>
</glyph>
<glyph name="p" format="1">
  <advance width="522"/>
  <unicode hex="0070"/>
  <outline>
    <contour>
      <point x="482" y="256" type="line" smooth="yes"/>
      <point x="482" y="84"/>
      <point x="403" y="-9"/>
      <point x="310" y="-9" type="curve" smooth="yes"/>
      <point x="240" y="-9"/>
      <point x="195" y="36"/>
      <point x="158" y="107" type="curve"/>
      <point x="152" y="107" type="line"/>
      <point x="152" y="-188" type="line"/>
      <point x="65" y="-188" type="line"/>
      <point x="65" y="507" type="line"/>
      <point x="152" y="530" type="line"/>
      <point x="152" y="412" type="line"/>
      <point x="158" y="412" type="line"/>
      <point x="198" y="484"/>
      <point x="240" y="530"/>
      <point x="312" y="530" type="curve" smooth="yes"/>
      <point x="410" y="530"/>
      <point x="482" y="440"/>
      <point x="482" y="267" type="curve" smooth="yes"/>
    </contour>
    <contour>
      <point x="396" y="259" type="curve" smooth="yes"/>
      <point x="396" y="410"/>
      <point x="341" y="470"/>
      <point x="279" y="470" type="curve" smooth="yes"/>
      <point x="206" y="470"/>
      <point x="150" y="377"/>
      <point x="150" y="260" type="curve" smooth="yes"/>
      <point x="150" y="144"/>
      <point x="205" y="51"/>
      <point x="280" y="51" type="curve" smooth="yes"/>
      <point x="343" y="51"/>
      <point x="396" y="115"/>
    </contour>
  </outline>
</glyph>
<glyph name="q" format="1">
  <advance width="522"/>
  <unicode hex="0071"/>
  <outline>
    <contour>
      <point x="456" y="-188" type="line"/>
      <point x="369" y="-188" type="line"/>
      <point x="369" y="109" type="line"/>
      <point x="364" y="109" type="line"/>
      <point x="323" y="36"/>
      <point x="282" y="-9"/>
      <point x="210" y="-9" type="curve" smooth="yes"/>
      <point x="112" y="-9"/>
      <point x="40" y="81"/>
      <point x="40" y="254" type="curve" smooth="yes"/>
      <point x="40" y="265" type="line" smooth="yes"/>
      <point x="40" y="437"/>
      <point x="119" y="530"/>
      <point x="212" y="530" type="curve" smooth="yes"/>
      <point x="282" y="530"/>
      <point x="327" y="485"/>
      <point x="364" y="413" type="curve"/>
      <point x="369" y="413" type="line"/>
      <point x="369" y="530" type="line"/>
      <point x="456" y="507" type="line"/>
    </contour>
    <contour>
      <point x="371" y="261" type="curve" smooth="yes"/>
      <point x="371" y="377"/>
      <point x="316" y="470"/>
      <point x="242" y="470" type="curve" smooth="yes"/>
      <point x="179" y="470"/>
      <point x="126" y="406"/>
      <point x="126" y="261" type="curve" smooth="yes"/>
      <point x="126" y="110"/>
      <point x="181" y="51"/>
      <point x="243" y="51" type="curve" smooth="yes"/>
      <point x="316" y="51"/>
      <point x="371" y="144"/>
    </contour>
  </outline>
</glyph>
<glyph name="r" format="1">
  <advance width="382"/>
  <unicode hex="0072"/>
  <outline>
    <contour>
      <point x="366" y="436" type="line"/>
      <point x="279" y="419"/>
      <point x="204" y="354"/>
      <point x="152" y="277" type="curve"/>
      <point x="152" y="0" type="line"/>
      <point x="65" y="0" type="line"/>
      <point x="65" y="507" type="line"/>
      <point x="152" y="530" type="line"/>
      <point x="152" y="327" type="line"/>
      <point x="158" y="327" type="line"/>
      <point x="226" y="448"/>
      <point x="294" y="516"/>
      <point x="366" y="530" type="curve"/>
    </contour>
  </outline>
</glyph>
<glyph name="s" format="1">
  <advance width="418"/>
  <unicode hex="0073"/>
  <outline>
    <contour>
      <point x="389" y="139" type="curve" smooth="yes"/>
      <point x="389" y="42"/>
      <point x="310" y="-9"/>
      <point x="212" y="-9" type="curve" smooth="yes"/>
      <point x="129" y="-9"/>
      <point x="70" y="20"/>
      <point x="26" y="59" type="curve"/>
      <point x="66" y="109" type="line"/>
      <point x="108" y="71"/>
      <point x="158" y="49"/>
      <point x="213" y="49" type="curve" smooth="yes"/>
      <point x="269" y="49"/>
      <point x="312" y="77"/>
      <point x="312" y="129" type="curve" smooth="yes"/>
      <point x="312" y="179"/>
      <point x="289" y="199"/>
      <point x="195" y="231" type="curve" smooth="yes"/>
      <point x="86" y="268"/>
      <point x="42" y="316"/>
      <point x="42" y="389" type="curve" smooth="yes"/>
      <point x="42" y="471"/>
      <point x="109" y="529"/>
      <point x="205" y="529" type="curve" smooth="yes"/>
      <point x="274" y="529"/>
      <point x="321" y="510"/>
      <point x="372" y="471" type="curve"/>
      <point x="331" y="419" type="line"/>
      <point x="287" y="455"/>
      <point x="250" y="472"/>
      <point x="204" y="472" type="curve" smooth="yes"/>
      <point x="148" y="472"/>
      <point x="119" y="438"/>
      <point x="119" y="399" type="curve" smooth="yes"/>
      <point x="119" y="355"/>
      <point x="150" y="332"/>
      <point x="231" y="305" type="curve" smooth="yes"/>
      <point x="349" y="265"/>
      <point x="389" y="218"/>
    </contour>
  </outline>
</glyph>
<glyph name="u" format="1">
  <advance width="505"/>
  <unicode hex="0075"/>
  <outline>
    <contour>
      <point x="440" y="14" type="line"/>
      <point x="352" y="-9" type="line"/>
      <point x="352" y="120" type="line"/>
      <point x="347" y="120" type="line"/>
      <point x="292" y="42"/>
      <point x="237" y="-6"/>
      <point x="168" y="-6" type="curve" smooth="yes"/>
      <point x="96" y="-6"/>
      <point x="61" y="41"/>
      <point x="61" y="116" type="curve" smooth="yes"/>
      <point x="61" y="521" type="line"/>
      <point x="148" y="521" type="line"/>
      <point x="148" y="135" type="line" smooth="yes"/>
      <point x="148" y="84"/>
      <point x="170" y="58"/>
      <point x="213" y="58" type="curve" smooth="yes"/>
      <point x="257" y="58"/>
      <point x="307" y="96"/>
      <point x="352" y="167" type="curve"/>
      <point x="352" y="521" type="line"/>
      <point x="440" y="521" type="line"/>
    </contour>
  </outline>
</glyph>
<glyph name="v" format="1">
  <advance width="480"/>
  <unicode hex="0076"/>
  <outline>
    <contour>
      <point x="457" y="521" type="line"/>
      <point x="286" y="-5" type="line"/>
      <point x="193" y="-5" type="line"/>
      <point x="23" y="521" type="line"/>
      <point x="113" y="521" type="line"/>
      <point x="242" y="85" type="line"/>
      <point x="372" y="521" type="line"/>
    </contour>
  </outline>
</glyph>
<glyph name="y" format="1">
  <advance width="480"/>
  <unicode hex="0079"/>
  <outline>
    <contour>
      <point x="457" y="521" type="line"/>
      <point x="269" y="-60" type="line" smooth="yes"/>
      <point x="237" y="-160"/>
      <point x="190" y="-192"/>
      <point x="112" y="-192" type="curve" smooth="yes"/>
      <point x="75" y="-192"/>
      <point x="50" y="-185"/>
      <point x="25" y="-174" type="curve"/>
      <point x="25" y="-110" type="line"/>
      <point x="48" y="-110" type="line"/>
      <point x="61" y="-131"/>
      <point x="76" y="-142"/>
      <point x="107" y="-142" type="curve" smooth="yes"/>
      <point x="144" y="-142"/>
      <point x="169" y="-119"/>
      <point x="186" y="-70" type="curve" smooth="yes"/>
      <point x="202" y="-23" type="line"/>
      <point x="23" y="521" type="line"/>
      <point x="113" y="521" type="line"/>
      <point x="242" y="82" type="line"/>
      <point x="372" y="521" type="line"/>
    </contour>
  </outline>
</glyph>
<glyph name="bar" format="1">
  <advance width="242"/>
  <unicode hex="007C"/>
  <outline>
    <contour>
      <point x="159" y="-188" type="line"/>
      <point x="83" y="-188" type="line"/>
      <point x="83" y="762" type="line"/>
      <point x="159" y="762" type="line"/>
    </contour>
  </outline>
</glyph>
<glyph name="braceright" format="1">
  <advance width="398"/>
  <unicode hex="007D"/>
  <outline>
    <contour>
      <point x="376" y="297" type="line"/>
      <point x="301" y="297"/>
      <point x="245" y="270"/>
      <point x="245" y="199" type="curve" smooth="yes"/>
      <point x="245" y="156"/>
      <point x="265" y="90"/>
      <point x="265" y="45" type="curve" smooth="yes"/>
      <point x="265" y="-36"/>
      <point x="219" y="-80"/>
      <point x="127" y="-80" type="curve" smooth="yes"/>
      <point x="31" y="-80" type="line"/>
      <point x="31" y="-35" type="line"/>
      <point x="100" y="-35" type="line" smooth="yes"/>
      <point x="155" y="-35"/>
      <point x="182" y="-2"/>
      <point x="182" y="43" type="curve" smooth="yes"/>
      <point x="182" y="83"/>
      <point x="162" y="144"/>
      <point x="162" y="193" type="curve" smooth="yes"/>
      <point x="162" y="270"/>
      <point x="211" y="297"/>
      <point x="267" y="316" type="curve"/>
      <point x="267" y="324" type="line"/>
      <point x="211" y="343"/>
      <point x="162" y="370"/>
      <point x="162" y="447" type="curve" smooth="yes"/>
      <point x="162" y="496"/>
      <point x="182" y="557"/>
      <point x="182" y="597" type="curve" smooth="yes"/>
      <point x="182" y="642"/>
      <point x="155" y="675"/>
      <point x="100" y="675" type="curve" smooth="yes"/>
      <point x="31" y="675" type="line"/>
      <point x="31" y="720" type="line"/>
      <point x="127" y="720" type="line" smooth="yes"/>
      <point x="219" y="720"/>
      <point x="265" y="676"/>
      <point x="265" y="595" type="curve" smooth="yes"/>
      <point x="265" y="550"/>
      <point x="245" y="484"/>
      <point x="245" y="441" type="curve" smooth="yes"/>
      <point x="245" y="370"/>
      <point x="301" y="343"/>
      <point x="376" y="343" type="curve"/>
    </contour>
  </outline>
</glyph>
<glyph name="exclamdown" format="1">
  <advance width="252"/>
  <unicode hex="00A1"/>
  <outline>
    <contour>
      <point x="182" y="670" type="curve" smooth="yes"/>
      <point x="182" y="638"/>
      <point x="158" y="614"/>
      <point x="126" y="614" type="curve" smooth="yes"/>
      <point x="94" y="614"/>
      <point x="69" y="638"/>
      <point x="69" y="670" type="curve" smooth="yes"/>
      <point x="69" y="702"/>
      <point x="94" y="727"/>
      <point x="126" y="727" type="curve" smooth="yes"/>
      <point x="158" y="727"/>
      <point x="182" y="702"/>
    </contour>
    <contour>
      <point x="180" y="0" type="line"/>
      <point x="72" y="0" type="line"/>
      <point x="102" y="506" type="line"/>
      <point x="150" y="506" type="line"/>
    </contour>
  </outline>
</glyph>
<glyph name="cent" format="1">
  <advance width="470"/>
  <unicode hex="00A2"/>
  <outline>
    <contour>
      <point x="77" y="-95" type="line"/>
      <point x="130" y="27" type="line"/>
      <point x="72" y="70"/>
      <point x="39" y="151"/>
      <point x="39" y="254" type="curve" smooth="yes"/>
      <point x="39" y="265" type="line" smooth="yes"/>
      <point x="39" y="423"/>
      <point x="120" y="531"/>
      <point x="249" y="531" type="curve" smooth="yes"/>
      <point x="281" y="531"/>
      <point x="309" y="525"/>
      <point x="332" y="512" type="curve"/>
      <point x="374" y="616" type="line"/>
      <point x="428" y="616" type="line"/>
      <point x="200" y="61" type="line"/>
      <point x="214" y="52"/>
      <point x="230" y="48"/>
      <point x="248" y="48" type="curve" smooth="yes"/>
      <point x="300" y="48"/>
      <point x="334" y="80"/>
      <point x="359" y="150" type="curve"/>
      <point x="428" y="130" type="line"/>
      <point x="398" y="40"/>
      <point x="337" y="-10"/>
      <point x="245" y="-10" type="curve" smooth="yes"/>
      <point x="219" y="-10"/>
      <point x="195" y="-6"/>
      <point x="173" y="4" type="curve"/>
      <point x="132" y="-95" type="line"/>
    </contour>
    <contour>
      <point x="170" y="96" type="curve"/>
      <point x="308" y="456" type="line"/>
      <point x="292" y="466"/>
      <point x="272" y="472"/>
      <point x="248" y="472" type="curve" smooth="yes"/>
      <point x="170" y="472"/>
      <point x="121" y="394"/>
      <point x="121" y="264" type="curve" smooth="yes"/>
      <point x="121" y="258" type="line" smooth="yes"/>
      <point x="121" y="188"/>
      <point x="139" y="131"/>
    </contour>
  </outline>
</glyph>
<glyph name="yen" format="1">
  <advance width="618"/>
  <unicode hex="00A5"/>
  <outline>
    <contour>
      <point x="598" y="720" type="line"/>
      <point x="412" y="388" type="line"/>
      <point x="550" y="388" type="line"/>
      <point x="550" y="336" type="line"/>
      <point x="384" y="336" type="line"/>
      <point x="353" y="280" type="line"/>
      <point x="353" y="203" type="line"/>
      <point x="550" y="203" type="line"/>
      <point x="550" y="150" type="line"/>
      <point x="353" y="150" type="line"/>
      <point x="353" y="0" type="line"/>
      <point x="265" y="0" type="line"/>
      <point x="265" y="150" type="line"/>
      <point x="67" y="150" type="line"/>
      <point x="67" y="203" type="line"/>
      <point x="265" y="203" type="line"/>
      <point x="265" y="278" type="line"/>
      <point x="233" y="336" type="line"/>
      <point x="67" y="336" type="line"/>
      <point x="67" y="388" type="line"/>
      <point x="205" y="388" type="line"/>
      <point x="19" y="720" type="line"/>
      <point x="119" y="720" type="line"/>
      <point x="312" y="350" type="line"/>
      <point x="505" y="720" type="line"/>
    </contour>
  </outline>
</glyph>
<glyph name="dieresis" format="1">
  <advance width="500"/>
  <unicode hex="00A8"/>
  <outline>
    <contour>
      <point x="384" y="592" type="line"/>
      <point x="299" y="592" type="line"/>
      <point x="299" y="689" type="line"/>
      <point x="384" y="689" type="line"/>
    </contour>
    <contour>
      <point x="201" y="592" type="line"/>
      <point x="116" y="592" type="line"/>
      <point x="116" y="689" type="line"/>
      <point x="201" y="689" type="line"/>
    </contour>
  </outline>
</glyph>
<glyph name="copyright" format="1">
  <advance width="831"/>
  <unicode hex="00A9"/>
  <outline>
    <contour>
      <point x="788" y="360" type="curve" smooth="yes"/>
      <point x="788" y="149"/>
      <point x="626" y="-12"/>
      <point x="415" y="-12" type="curve" smooth="yes"/>
      <point x="204" y="-12"/>
      <point x="44" y="148"/>
      <point x="44" y="360" type="curve" smooth="yes"/>
      <point x="44" y="571"/>
      <point x="205" y="732"/>
      <point x="416" y="732" type="curve" smooth="yes"/>
      <point x="627" y="732"/>
      <point x="788" y="572"/>
    </contour>
    <contour>
      <point x="749" y="360" type="curve" smooth="yes"/>
      <point x="749" y="552"/>
      <point x="608" y="698"/>
      <point x="415" y="698" type="curve" smooth="yes"/>
      <point x="223" y="698"/>
      <point x="82" y="553"/>
      <point x="82" y="360" type="curve" smooth="yes"/>
      <point x="82" y="168"/>
      <point x="223" y="22"/>
      <point x="416" y="22" type="curve" smooth="yes"/>
      <point x="609" y="22"/>
      <point x="749" y="167"/>
    </contour>
    <contour>
      <point x="557" y="288" type="line"/>
      <point x="539" y="205"/>
      <point x="494" y="154"/>
      <point x="413" y="154" type="curve" smooth="yes"/>
      <point x="320" y="154"/>
      <point x="260" y="231"/>
      <point x="260" y="358" type="curve" smooth="yes"/>
      <point x="260" y="371" type="line" smooth="yes"/>
      <point x="260" y="498"/>
      <point x="319" y="575"/>
      <point x="414" y="575" type="curve" smooth="yes"/>
      <point x="495" y="575"/>
      <point x="538" y="527"/>
      <point x="555" y="449" type="curve"/>
      <point x="493" y="432" type="line"/>
      <point x="478" y="493"/>
      <point x="457" y="522"/>
      <point x="414" y="522" type="curve" smooth="yes"/>
      <point x="354" y="522"/>
      <point x="328" y="461"/>
      <point x="328" y="377" type="curve" smooth="yes"/>
      <point x="328" y="354" type="line" smooth="yes"/>
      <point x="328" y="270"/>
      <point x="354" y="208"/>
      <point x="414" y="208" type="curve" smooth="yes"/>
      <point x="459" y="208"/>
      <point x="483" y="241"/>
      <point x="497" y="304" type="curve"/>
    </contour>
  </outline>
</glyph>
<glyph name="acute" format="1">
  <advance width="500"/>
  <unicode hex="00B4"/>
  <outline>
    <contour>
      <point x="361" y="743" type="line"/>
      <point x="221" y="592" type="line"/>
      <point x="163" y="592" type="line"/>
      <point x="251" y="743" type="line"/>
    </contour>
  </outline>
</glyph>
<glyph name="periodcentered" format="1">
  <advance width="198"/>
  <unicode hex="00B7"/>
  <outline>
    <contour>
      <point x="158" y="278" type="curve" smooth="yes"/>
      <point x="158" y="244"/>
      <point x="133" y="219"/>
      <point x="99" y="219" type="curve" smooth="yes"/>
      <point x="65" y="219"/>
      <point x="40" y="244"/>
      <point x="40" y="278" type="curve" smooth="yes"/>
      <point x="40" y="312"/>
      <point x="65" y="337"/>
      <point x="99" y="337" type="curve" smooth="yes"/>
      <point x="133" y="337"/>
      <point x="158" y="312"/>
    </contour>
  </outline>
</glyph>
<glyph name="cedilla" format="1">
  <advance width="500"/>
  <unicode hex="00B8"/>
  <outline>
    <contour>
      <point x="378" y="-101" type="curve" smooth="yes"/>
      <point x="378" y="-164"/>
      <point x="304" y="-194"/>
      <point x="155" y="-191" type="curve"/>
      <point x="155" y="-165" type="line"/>
      <point x="274" y="-163"/>
      <point x="314" y="-143"/>
      <point x="314" y="-113" type="curve" smooth="yes"/>
      <point x="314" y="-95"/>
      <point x="301" y="-85"/>
      <point x="277" y="-85" type="curve" smooth="yes"/>
      <point x="256" y="-85"/>
      <point x="239" y="-89"/>
      <point x="222" y="-97" type="curve"/>
      <point x="197" y="-81" type="line"/>
      <point x="250" y="0" type="line"/>
      <point x="289" y="0" type="line"/>
      <point x="257" y="-52" type="line"/>
      <point x="270" y="-47"/>
      <point x="285" y="-44"/>
      <point x="304" y="-44" type="curve" smooth="yes"/>
      <point x="348" y="-44"/>
      <point x="378" y="-63"/>
    </contour>
  </outline>
</glyph>
<glyph name="guillemotright" format="1">
  <advance width="469"/>
  <unicode hex="00BB"/>
  <outline>
    <contour>
      <point x="443" y="260" type="line"/>
      <point x="285" y="76" type="line"/>
      <point x="231" y="76" type="line"/>
      <point x="348" y="260" type="line"/>
      <point x="231" y="445" type="line"/>
      <point x="285" y="445" type="line"/>
    </contour>
    <contour>
      <point x="245" y="260" type="line"/>
      <point x="87" y="76" type="line"/>
      <point x="32" y="76" type="line"/>
      <point x="150" y="260" type="line"/>
      <point x="32" y="445" type="line"/>
      <point x="87" y="445" type="line"/>
    </contour>
  </outline>
</glyph>
<glyph name="Aring" format="1">
  <advance width="671"/>
  <unicode hex="00C5"/>
  <outline>
    <contour>
      <point x="439" y="859" type="curve" smooth="yes"/>
      <point x="439" y="805"/>
      <point x="398" y="766"/>
      <point x="336" y="766" type="curve" smooth="yes"/>
      <point x="274" y="766"/>
      <point x="233" y="805"/>
      <point x="233" y="859" type="curve" smooth="yes"/>
      <point x="233" y="913"/>
      <point x="274" y="951"/>
      <point x="336" y="951" type="curve" smooth="yes"/>
      <point x="398" y="951"/>
      <point x="439" y="913"/>
    </contour>
    <contour>
      <point x="646" y="0" type="line"/>
      <point x="551" y="0" type="line"/>
      <point x="490" y="185" type="line"/>
      <point x="178" y="185" type="line"/>
      <point x="117" y="0" type="line"/>
      <point x="25" y="0" type="line"/>
      <point x="273" y="723" type="line"/>
      <point x="398" y="723" type="line"/>
    </contour>
    <contour>
      <point x="390" y="859" type="curve" smooth="yes"/>
      <point x="390" y="892"/>
      <point x="367" y="916"/>
      <point x="336" y="916" type="curve" smooth="yes"/>
      <point x="305" y="916"/>
      <point x="282" y="892"/>
      <point x="282" y="859" type="curve" smooth="yes"/>
      <point x="282" y="826"/>
      <point x="305" y="802"/>
      <point x="336" y="802" type="curve" smooth="yes"/>
      <point x="367" y="802"/>
      <point x="390" y="826"/>
    </contour>
    <contour>
      <point x="472" y="250" type="line"/>
      <point x="338" y="652" type="line"/>
      <point x="330" y="652" type="line"/>
      <point x="196" y="250" type="line"/>
    </contour>
  </outline>
</glyph>
<glyph name="AE" format="1">
  <advance width="927"/>
  <unicode hex="00C6"/>
  <outline>
    <contour>
      <point x="890" y="0" type="line"/>
      <point x="463" y="0" type="line"/>
      <point x="463" y="185" type="line"/>
      <point x="199" y="185" type="line"/>
      <point x="105" y="0" type="line"/>
      <point x="10" y="0" type="line"/>
      <point x="383" y="720" type="line"/>
      <point x="878" y="720" type="line"/>
      <point x="878" y="647" type="line"/>
      <point x="553" y="647" type="line"/>
      <point x="553" y="411" type="line"/>
      <point x="815" y="411" type="line"/>
      <point x="815" y="340" type="line"/>
      <point x="553" y="340" type="line"/>
      <point x="553" y="73" type="line"/>
      <point x="890" y="73" type="line"/>
    </contour>
    <contour>
      <point x="463" y="250" type="line"/>
      <point x="463" y="648" type="line"/>
      <point x="435" y="648" type="line"/>
      <point x="229" y="250" type="line"/>
    </contour>
  </outline>
</glyph>
<glyph name="Ccedilla" format="1">
  <advance width="587"/>
  <unicode hex="00C7"/>
  <outline>
    <contour>
      <point x="551" y="210" type="line"/>
      <point x="523" y="81"/>
      <point x="454" y="-4"/>
      <point x="328" y="-11" type="curve"/>
      <point x="303" y="-52" type="line"/>
      <point x="317" y="-47"/>
      <point x="332" y="-44"/>
      <point x="350" y="-44" type="curve" smooth="yes"/>
      <point x="395" y="-44"/>
      <point x="425" y="-63"/>
      <point x="425" y="-101" type="curve" smooth="yes"/>
      <point x="425" y="-164"/>
      <point x="350" y="-194"/>
      <point x="201" y="-191" type="curve"/>
      <point x="201" y="-165" type="line"/>
      <point x="320" y="-163"/>
      <point x="361" y="-143"/>
      <point x="361" y="-113" type="curve" smooth="yes"/>
      <point x="361" y="-95"/>
      <point x="347" y="-85"/>
      <point x="323" y="-85" type="curve" smooth="yes"/>
      <point x="303" y="-85"/>
      <point x="286" y="-89"/>
      <point x="268" y="-97" type="curve"/>
      <point x="243" y="-81" type="line"/>
      <point x="290" y="-11" type="line"/>
      <point x="140" y="1"/>
      <point x="49" y="135"/>
      <point x="49" y="348" type="curve" smooth="yes"/>
      <point x="49" y="370" type="line" smooth="yes"/>
      <point x="49" y="594"/>
      <point x="149" y="732"/>
      <point x="312" y="732" type="curve" smooth="yes"/>
      <point x="447" y="732"/>
      <point x="520" y="648"/>
      <point x="547" y="521" type="curve"/>
      <point x="460" y="498" type="line"/>
      <point x="436" y="604"/>
      <point x="392" y="660"/>
      <point x="312" y="660" type="curve" smooth="yes"/>
      <point x="198" y="660"/>
      <point x="145" y="543"/>
      <point x="145" y="380" type="curve" smooth="yes"/>
      <point x="145" y="342" type="line" smooth="yes"/>
      <point x="145" y="178"/>
      <point x="198" y="60"/>
      <point x="313" y="60" type="curve" smooth="yes"/>
      <point x="398" y="60"/>
      <point x="443" y="125"/>
      <point x="466" y="232" type="curve"/>
    </contour>
  </outline>
</glyph>
<glyph name="Eth" format="1">
  <advance width="662"/>
  <unicode hex="00D0"/>
  <outline>
    <contour>
      <point x="614" y="352" type="line" smooth="yes"/>
      <point x="614" y="128"/>
      <point x="499" y="0"/>
      <point x="303" y="0" type="curve" smooth="yes"/>
      <point x="114" y="0" type="line"/>
      <point x="114" y="339" type="line"/>
      <point x="26" y="339" type="line"/>
      <point x="26" y="412" type="line"/>
      <point x="114" y="412" type="line"/>
      <point x="114" y="720" type="line"/>
      <point x="307" y="720" type="line" smooth="yes"/>
      <point x="503" y="720"/>
      <point x="614" y="592"/>
      <point x="614" y="369" type="curve" smooth="yes"/>
    </contour>
    <contour>
      <point x="518" y="345" type="curve" smooth="yes"/>
      <point x="518" y="374" type="line" smooth="yes"/>
      <point x="518" y="553"/>
      <point x="443" y="648"/>
      <point x="301" y="648" type="curve" smooth="yes"/>
      <point x="203" y="648" type="line"/>
      <point x="203" y="412" type="line"/>
      <point x="335" y="412" type="line"/>
      <point x="335" y="339" type="line"/>
      <point x="203" y="339" type="line"/>
      <point x="203" y="72" type="line"/>
      <point x="304" y="72" type="line" smooth="yes"/>
      <point x="439" y="72"/>
      <point x="518" y="167"/>
    </contour>
  </outline>
</glyph>
<glyph name="multiply" format="1">
  <advance width="600"/>
  <unicode hex="00D7"/>
  <outline>
    <contour>
      <point x="536" y="174" type="line"/>
      <point x="481" y="119" type="line"/>
      <point x="300" y="305" type="line"/>
      <point x="119" y="119" type="line"/>
      <point x="64" y="174" type="line"/>
      <point x="250" y="355" type="line"/>
      <point x="64" y="536" type="line"/>
      <point x="119" y="591" type="line"/>
      <point x="300" y="405" type="line"/>
      <point x="481" y="591" type="line"/>
      <point x="536" y="536" type="line"/>
      <point x="350" y="355" type="line"/>
    </contour>
  </outline>
</glyph>
<glyph name="Oslash" format="1">
  <advance width="624"/>
  <unicode hex="00D8"/>
  <outline>
    <contour>
      <point x="575" y="350" type="line" smooth="yes"/>
      <point x="575" y="126"/>
      <point x="476" y="-12"/>
      <point x="312" y="-12" type="curve" smooth="yes"/>
      <point x="259" y="-12"/>
      <point x="212" y="3"/>
      <point x="174" y="32" type="curve"/>
      <point x="110" y="-95" type="line"/>
      <point x="49" y="-95" type="line"/>
      <point x="133" y="66" type="line"/>
      <point x="78" y="127"/>
      <point x="49" y="225"/>
      <point x="49" y="348" type="curve" smooth="yes"/>
      <point x="49" y="370" type="line" smooth="yes"/>
      <point x="49" y="594"/>
      <point x="149" y="732"/>
      <point x="312" y="732" type="curve" smooth="yes"/>
      <point x="365" y="732"/>
      <point x="412" y="717"/>
      <point x="449" y="688" type="curve"/>
      <point x="514" y="817" type="line"/>
      <point x="575" y="817" type="line"/>
      <point x="490" y="655" type="line"/>
      <point x="544" y="593"/>
      <point x="575" y="496"/>
      <point x="575" y="372" type="curve" smooth="yes"/>
    </contour>
    <contour>
      <point x="415" y="618" type="line"/>
      <point x="388" y="647"/>
      <point x="354" y="663"/>
      <point x="312" y="663" type="curve" smooth="yes"/>
      <point x="198" y="663"/>
      <point x="141" y="548"/>
      <point x="141" y="380" type="curve" smooth="yes"/>
      <point x="141" y="342" type="line" smooth="yes"/>
      <point x="141" y="266"/>
      <point x="153" y="197"/>
      <point x="182" y="151" type="curve"/>
    </contour>
    <contour>
      <point x="483" y="340" type="curve" smooth="yes"/>
      <point x="483" y="378" type="line" smooth="yes"/>
      <point x="483" y="454"/>
      <point x="470" y="524"/>
      <point x="442" y="570" type="curve"/>
      <point x="208" y="102" type="line"/>
      <point x="235" y="73"/>
      <point x="269" y="57"/>
      <point x="312" y="57" type="curve" smooth="yes"/>
      <point x="426" y="57"/>
      <point x="483" y="171"/>
    </contour>
  </outline>
</glyph>
<glyph name="ae" format="1">
  <advance width="763"/>
  <unicode hex="00E6"/>
  <outline>
    <contour>
      <point x="544" y="-9" type="curve" smooth="yes"/>
      <point x="467" y="-9"/>
      <point x="405" y="28"/>
      <point x="368" y="95" type="curve"/>
      <point x="313" y="30"/>
      <point x="249" y="-7"/>
      <point x="176" y="-7" type="curve" smooth="yes"/>
      <point x="91" y="-7"/>
      <point x="29" y="41"/>
      <point x="29" y="131" type="curve" smooth="yes"/>
      <point x="29" y="237"/>
      <point x="131" y="305"/>
      <point x="332" y="308" type="curve"/>
      <point x="332" y="372" type="line" smooth="yes"/>
      <point x="332" y="431"/>
      <point x="302" y="464"/>
      <point x="246" y="464" type="curve" smooth="yes"/>
      <point x="202" y="464"/>
      <point x="155" y="447"/>
      <point x="94" y="413" type="curve"/>
      <point x="68" y="469" type="line"/>
      <point x="130" y="502"/>
      <point x="186" y="526"/>
      <point x="257" y="526" type="curve" smooth="yes"/>
      <point x="335" y="526"/>
      <point x="371" y="486"/>
      <point x="383" y="425" type="curve"/>
      <point x="390" y="425" type="line"/>
      <point x="419" y="491"/>
      <point x="466" y="531"/>
      <point x="534" y="531" type="curve" smooth="yes"/>
      <point x="654" y="531"/>
      <point x="724" y="426"/>
      <point x="724" y="263" type="curve" smooth="yes"/>
      <point x="724" y="242" type="line"/>
      <point x="415" y="242" type="line"/>
      <point x="417" y="115"/>
      <point x="471" y="53"/>
      <point x="555" y="53" type="curve" smooth="yes"/>
      <point x="606" y="53"/>
      <point x="648" y="73"/>
      <point x="693" y="110" type="curve"/>
      <point x="722" y="58" type="line"/>
      <point x="670" y="16"/>
      <point x="619" y="-9"/>
    </contour>
    <contour>
      <point x="415" y="287" type="curve"/>
      <point x="641" y="287" type="line"/>
      <point x="635" y="412"/>
      <point x="600" y="475"/>
      <point x="532" y="475" type="curve" smooth="yes"/>
      <point x="461" y="475"/>
      <point x="420" y="406"/>
    </contour>
    <contour>
      <point x="204" y="49" type="curve" smooth="yes"/>
      <point x="252" y="49"/>
      <point x="306" y="77"/>
      <point x="351" y="132" type="curve"/>
      <point x="338" y="167"/>
      <point x="332" y="207"/>
      <point x="332" y="252" type="curve" smooth="yes"/>
      <point x="332" y="267" type="line"/>
      <point x="175" y="266"/>
      <point x="110" y="209"/>
      <point x="110" y="140" type="curve" smooth="yes"/>
      <point x="110" y="81"/>
      <point x="148" y="49"/>
    </contour>
  </outline>
</glyph>
<glyph name="eth" format="1">
  <advance width="503"/>
  <unicode hex="00F0"/>
  <outline>
    <contour>
      <point x="461" y="270" type="line" smooth="yes"/>
      <point x="461" y="97"/>
      <point x="382" y="-10"/>
      <point x="251" y="-10" type="curve" smooth="yes"/>
      <point x="120" y="-10"/>
      <point x="39" y="96"/>
      <point x="39" y="254" type="curve" smooth="yes"/>
      <point x="39" y="265" type="line" smooth="yes"/>
      <point x="39" y="423"/>
      <point x="114" y="528"/>
      <point x="233" y="528" type="curve" smooth="yes"/>
      <point x="303" y="528"/>
      <point x="349" y="481"/>
      <point x="379" y="417" type="curve"/>
      <point x="385" y="417" type="line"/>
      <point x="375" y="506"/>
      <point x="333" y="583"/>
      <point x="281" y="648" type="curve"/>
      <point x="165" y="586" type="line"/>
      <point x="165" y="631" type="line"/>
      <point x="252" y="678" type="line"/>
      <point x="232" y="700"/>
      <point x="211" y="720"/>
      <point x="188" y="738" type="curve"/>
      <point x="260" y="762" type="line"/>
      <point x="278" y="745"/>
      <point x="297" y="726"/>
      <point x="314" y="706" type="curve"/>
      <point x="423" y="762" type="line"/>
      <point x="423" y="717" type="line"/>
      <point x="342" y="673" type="line"/>
      <point x="409" y="587"/>
      <point x="461" y="471"/>
      <point x="461" y="290" type="curve" smooth="yes"/>
    </contour>
    <contour>
      <point x="375" y="254" type="curve" smooth="yes"/>
      <point x="375" y="265" type="line" smooth="yes"/>
      <point x="375" y="395"/>
      <point x="331" y="473"/>
      <point x="251" y="473" type="curve" smooth="yes"/>
      <point x="170" y="473"/>
      <point x="126" y="395"/>
      <point x="126" y="267" type="curve" smooth="yes"/>
      <point x="126" y="255" type="line" smooth="yes"/>
      <point x="126" y="126"/>
      <point x="170" y="47"/>
      <point x="251" y="47" type="curve" smooth="yes"/>
      <point x="331" y="47"/>
      <point x="375" y="126"/>
    </contour>
  </outline>
</glyph>
<glyph name="dotlessi" format="1">
  <advance width="233"/>
  <unicode hex="0131"/>
  <outline>
    <contour>
      <point x="160" y="0" type="line"/>
      <point x="73" y="0" type="line"/>
      <point x="73" y="521" type="line"/>
      <point x="160" y="521" type="line"/>
    </contour>
  </outline>
</glyph>
<glyph name="Lslash" format="1">
  <advance width="551"/>
  <unicode hex="0141"/>
  <outline>
    <contour>
      <point x="533" y="0" type="line"/>
      <point x="114" y="0" type="line"/>
      <point x="114" y="317" type="line"/>
      <point x="26" y="277" type="line"/>
      <point x="26" y="354" type="line"/>
      <point x="114" y="394" type="line"/>
      <point x="114" y="720" type="line"/>
      <point x="206" y="720" type="line"/>
      <point x="206" y="432" type="line"/>
      <point x="349" y="498" type="line"/>
      <point x="349" y="420" type="line"/>
      <point x="206" y="354" type="line"/>
      <point x="206" y="77" type="line"/>
      <point x="533" y="77" type="line"/>
    </contour>
  </outline>
</glyph>
<glyph name="OE" format="1">
  <advance width="892"/>
  <unicode hex="0152"/>
  <outline>
    <contour>
      <point x="855" y="0" type="line"/>
      <point x="362" y="0" type="line" smooth="yes"/>
      <point x="160" y="0"/>
      <point x="49" y="128"/>
      <point x="49" y="351" type="curve" smooth="yes"/>
      <point x="49" y="368" type="line" smooth="yes"/>
      <point x="49" y="592"/>
      <point x="164" y="720"/>
      <point x="366" y="720" type="curve" smooth="yes"/>
      <point x="843" y="720" type="line"/>
      <point x="843" y="648" type="line"/>
      <point x="525" y="648" type="line"/>
      <point x="525" y="411" type="line"/>
      <point x="780" y="411" type="line"/>
      <point x="780" y="340" type="line"/>
      <point x="525" y="340" type="line"/>
      <point x="525" y="72" type="line"/>
      <point x="855" y="72" type="line"/>
    </contour>
    <contour>
      <point x="434" y="71" type="line"/>
      <point x="434" y="649" type="line"/>
      <point x="365" y="649" type="line" smooth="yes"/>
      <point x="227" y="649"/>
      <point x="143" y="554"/>
      <point x="143" y="376" type="curve" smooth="yes"/>
      <point x="143" y="346" type="line" smooth="yes"/>
      <point x="143" y="166"/>
      <point x="223" y="71"/>
      <point x="369" y="71" type="curve" smooth="yes"/>
    </contour>
  </outline>
</glyph>
<glyph name="florin" format="1">
  <advance width="459"/>
  <unicode hex="0192"/>
  <outline>
    <contour>
      <point x="446" y="712" type="curve"/>
      <point x="434" y="648" type="line"/>
      <point x="407" y="657"/>
      <point x="385" y="660"/>
      <point x="352" y="660" type="curve" smooth="yes"/>
      <point x="309" y="660"/>
      <point x="278" y="635"/>
      <point x="269" y="582" type="curve" smooth="yes"/>
      <point x="248" y="462" type="line"/>
      <point x="375" y="462" type="line"/>
      <point x="364" y="398" type="line"/>
      <point x="237" y="398" type="line"/>
      <point x="155" y="-68" type="line" smooth="yes"/>
      <point x="139" y="-159"/>
      <point x="86" y="-190"/>
      <point x="12" y="-190" type="curve" smooth="yes"/>
      <point x="-19" y="-190"/>
      <point x="-47" y="-185"/>
      <point x="-67" y="-180" type="curve"/>
      <point x="-56" y="-118" type="line"/>
      <point x="-38" y="-122"/>
      <point x="-19" y="-126"/>
      <point x="1" y="-126" type="curve" smooth="yes"/>
      <point x="35" y="-126"/>
      <point x="61" y="-106"/>
      <point x="69" y="-60" type="curve" smooth="yes"/>
      <point x="150" y="398" type="line"/>
      <point x="49" y="398" type="line"/>
      <point x="59" y="462" type="line"/>
      <point x="161" y="462" type="line"/>
      <point x="183" y="588" type="line" smooth="yes"/>
      <point x="200" y="686"/>
      <point x="257" y="726"/>
      <point x="342" y="726" type="curve" smooth="yes"/>
      <point x="384" y="726"/>
      <point x="418" y="720"/>
    </contour>
  </outline>
</glyph>
<glyph name="circumflex" format="1">
  <advance width="500"/>
  <unicode hex="02C6"/>
  <outline>
    <contour>
      <point x="408" y="589" type="line"/>
      <point x="360" y="589" type="line"/>
      <point x="249" y="689" type="line"/>
      <point x="138" y="589" type="line"/>
      <point x="92" y="589" type="line"/>
      <point x="214" y="749" type="line"/>
      <point x="286" y="749" type="line"/>
    </contour>
  </outline>
</glyph>
<glyph name="breve" format="1">
  <advance width="500"/>
  <unicode hex="02D8"/>
  <outline>
    <contour>
      <point x="401" y="752" type="line"/>
      <point x="396" y="650"/>
      <point x="345" y="589"/>
      <point x="250" y="589" type="curve" smooth="yes"/>
      <point x="155" y="589"/>
      <point x="104" y="650"/>
      <point x="99" y="752" type="curve"/>
      <point x="144" y="752" type="line"/>
      <point x="153" y="682"/>
      <point x="187" y="648"/>
      <point x="250" y="648" type="curve" smooth="yes"/>
      <point x="313" y="648"/>
      <point x="347" y="682"/>
      <point x="356" y="752" type="curve"/>
    </contour>
  </outline>
</glyph>
<glyph name="ring" format="1">
  <advance width="500"/>
  <unicode hex="02DA"/>
  <outline>
    <contour>
      <point x="353" y="678" type="curve" smooth="yes"/>
      <point x="353" y="624"/>
      <point x="312" y="585"/>
      <point x="250" y="585" type="curve" smooth="yes"/>
      <point x="188" y="585"/>
      <point x="147" y="624"/>
      <point x="147" y="678" type="curve" smooth="yes"/>
      <point x="147" y="732"/>
      <point x="188" y="770"/>
      <point x="250" y="770" type="curve" smooth="yes"/>
      <point x="312" y="770"/>
      <point x="353" y="732"/>
    </contour>
    <contour>
      <point x="304" y="678" type="curve" smooth="yes"/>
      <point x="304" y="711"/>
      <point x="281" y="735"/>
      <point x="250" y="735" type="curve" smooth="yes"/>
      <point x="219" y="735"/>
      <point x="196" y="711"/>
      <point x="196" y="678" type="curve" smooth="yes"/>
      <point x="196" y="645"/>
      <point x="219" y="621"/>
      <point x="250" y="621" type="curve" smooth="yes"/>
      <point x="281" y="621"/>
      <point x="304" y="645"/>
    </contour>
  </outline>
</glyph>
<glyph name="ogonek" format="1">
  <advance width="500"/>
  <unicode hex="02DB"/>
  <outline>
    <contour>
      <point x="376" y="-156" type="line"/>
      <point x="335" y="-178"/>
      <point x="294" y="-190"/>
      <point x="250" y="-190" type="curve" smooth="yes"/>
      <point x="188" y="-190"/>
      <point x="149" y="-162"/>
      <point x="149" y="-115" type="curve" smooth="yes"/>
      <point x="149" y="-71"/>
      <point x="187" y="-31"/>
      <point x="243" y="0" type="curve"/>
      <point x="288" y="0" type="line"/>
      <point x="239" y="-35"/>
      <point x="216" y="-70"/>
      <point x="216" y="-103" type="curve" smooth="yes"/>
      <point x="216" y="-130"/>
      <point x="237" y="-148"/>
      <point x="269" y="-148" type="curve" smooth="yes"/>
      <point x="301" y="-148"/>
      <point x="329" y="-141"/>
      <point x="364" y="-128" type="curve"/>
    </contour>
  </outline>
</glyph>
<glyph name="quoteright" format="1">
  <advance width="198"/>
  <unicode hex="2019"/>
  <unicode hex="02BC"/>
  <outline>
    <contour>
      <point x="169" y="720" type="line"/>
      <point x="91" y="489" type="line"/>
      <point x="39" y="489" type="line"/>
      <point x="71" y="720" type="line"/>
    </contour>
  </outline>
</glyph>
<glyph name="quotesinglbase" format="1">
  <advance width="198"/>
  <unicode hex="201A"/>
  <outline>
    <contour>
      <point x="160" y="113" type="line"/>
      <point x="82" y="-118" type="line"/>
      <point x="30" y="-118" type="line"/>
      <point x="62" y="113" type="line"/>
    </contour>
  </outline>
</glyph>
<glyph name="quotedblleft" format="1">
  <advance width="360"/>
  <unicode hex="201C"/>
  <outline>
    <contour>
      <point x="321" y="489" type="line"/>
      <point x="270" y="489" type="line"/>
      <point x="192" y="720" type="line"/>
      <point x="289" y="720" type="line"/>
    </contour>
    <contour>
      <point x="158" y="489" type="line"/>
      <point x="107" y="489" type="line"/>
      <point x="28" y="720" type="line"/>
      <point x="125" y="720" type="line"/>
    </contour>
  </outline>
</glyph>
<glyph name="perthousand" format="1">
  <advance width="1246"/>
  <unicode hex="2030"/>
  <outline>
    <contour>
      <point x="369" y="530" type="curve" smooth="yes"/>
      <point x="369" y="409"/>
      <point x="295" y="333"/>
      <point x="199" y="333" type="curve" smooth="yes"/>
      <point x="103" y="333"/>
      <point x="32" y="408"/>
      <point x="32" y="530" type="curve" smooth="yes"/>
      <point x="32" y="650"/>
      <point x="105" y="727"/>
      <point x="201" y="727" type="curve" smooth="yes"/>
      <point x="297" y="727"/>
      <point x="369" y="652"/>
    </contour>
    <contour>
      <point x="687" y="720" type="line"/>
      <point x="450" y="350" type="line"/>
      <point x="247" y="0" type="line"/>
      <point x="167" y="0" type="line"/>
      <point x="405" y="370" type="line"/>
      <point x="608" y="720" type="line"/>
    </contour>
    <contour>
      <point x="1214" y="190" type="curve" smooth="yes"/>
      <point x="1214" y="70"/>
      <point x="1141" y="-7"/>
      <point x="1045" y="-7" type="curve" smooth="yes"/>
      <point x="949" y="-7"/>
      <point x="878" y="68"/>
      <point x="878" y="190" type="curve" smooth="yes"/>
      <point x="878" y="311"/>
      <point x="951" y="387"/>
      <point x="1047" y="387" type="curve" smooth="yes"/>
      <point x="1143" y="387"/>
      <point x="1214" y="312"/>
    </contour>
    <contour>
      <point x="823" y="190" type="curve" smooth="yes"/>
      <point x="823" y="70"/>
      <point x="750" y="-7"/>
      <point x="654" y="-7" type="curve" smooth="yes"/>
      <point x="557" y="-7"/>
      <point x="486" y="68"/>
      <point x="486" y="190" type="curve" smooth="yes"/>
      <point x="486" y="311"/>
      <point x="559" y="387"/>
      <point x="656" y="387" type="curve" smooth="yes"/>
      <point x="752" y="387"/>
      <point x="823" y="312"/>
    </contour>
    <contour>
      <point x="297" y="529" type="curve" smooth="yes"/>
      <point x="297" y="614"/>
      <point x="262" y="670"/>
      <point x="200" y="670" type="curve" smooth="yes"/>
      <point x="139" y="670"/>
      <point x="103" y="616"/>
      <point x="103" y="531" type="curve" smooth="yes"/>
      <point x="103" y="445"/>
      <point x="139" y="390"/>
      <point x="200" y="390" type="curve" smooth="yes"/>
      <point x="261" y="390"/>
      <point x="297" y="443"/>
    </contour>
    <contour>
      <point x="1143" y="189" type="curve" smooth="yes"/>
      <point x="1143" y="275"/>
      <point x="1107" y="330"/>
      <point x="1046" y="330" type="curve" smooth="yes"/>
      <point x="986" y="330"/>
      <point x="949" y="277"/>
      <point x="949" y="191" type="curve" smooth="yes"/>
      <point x="949" y="106"/>
      <point x="985" y="50"/>
      <point x="1046" y="50" type="curve" smooth="yes"/>
      <point x="1107" y="50"/>
      <point x="1143" y="104"/>
    </contour>
    <contour>
      <point x="752" y="189" type="curve" smooth="yes"/>
      <point x="752" y="275"/>
      <point x="716" y="330"/>
      <point x="655" y="330" type="curve" smooth="yes"/>
      <point x="593" y="330"/>
      <point x="557" y="277"/>
      <point x="557" y="191" type="curve" smooth="yes"/>
      <point x="557" y="106"/>
      <point x="593" y="50"/>
      <point x="655" y="50" type="curve" smooth="yes"/>
      <point x="715" y="50"/>
      <point x="752" y="104"/>
    </contour>
  </outline>
</glyph>
<glyph name="Euro" format="1">
  <advance width="587"/>
  <unicode hex="20AC"/>
  <outline>
    <contour>
      <point x="551" y="179" type="line"/>
      <point x="506" y="64"/>
      <point x="439" y="-12"/>
      <point x="310" y="-12" type="curve" smooth="yes"/>
      <point x="150" y="-12"/>
      <point x="49" y="124"/>
      <point x="49" y="349" type="curve" smooth="yes"/>
      <point x="49" y="371" type="line" smooth="yes"/>
      <point x="49" y="594"/>
      <point x="149" y="732"/>
      <point x="312" y="732" type="curve" smooth="yes"/>
      <point x="434" y="732"/>
      <point x="503" y="671"/>
      <point x="546" y="554" type="curve"/>
      <point x="474" y="516" type="line"/>
      <point x="440" y="611"/>
      <point x="393" y="661"/>
      <point x="314" y="661" type="curve" smooth="yes"/>
      <point x="218" y="661"/>
      <point x="162" y="580"/>
      <point x="147" y="457" type="curve"/>
      <point x="367" y="457" type="line"/>
      <point x="367" y="406" type="line"/>
      <point x="143" y="406" type="line"/>
      <point x="142" y="394"/>
      <point x="141" y="382"/>
      <point x="141" y="369" type="curve" smooth="yes"/>
      <point x="141" y="350" type="line" smooth="yes"/>
      <point x="141" y="334"/>
      <point x="142" y="318"/>
      <point x="144" y="304" type="curve"/>
      <point x="367" y="304" type="line"/>
      <point x="367" y="253" type="line"/>
      <point x="148" y="253" type="line"/>
      <point x="165" y="137"/>
      <point x="222" y="59"/>
      <point x="318" y="59" type="curve" smooth="yes"/>
      <point x="398" y="59"/>
      <point x="449" y="114"/>
      <point x="483" y="213" type="curve"/>
    </contour>
  </outline>
</glyph>
<glyph name="trademark" format="1">
  <advance width="780"/>
  <unicode hex="2122"/>
  <outline>
    <contour>
      <point x="717" y="381" type="line"/>
      <point x="666" y="381" type="line"/>
      <point x="666" y="669" type="line"/>
      <point x="664" y="669" type="line"/>
      <point x="567" y="381" type="line"/>
      <point x="511" y="381" type="line"/>
      <point x="414" y="669" type="line"/>
      <point x="412" y="669" type="line"/>
      <point x="412" y="381" type="line"/>
      <point x="361" y="381" type="line"/>
      <point x="361" y="720" type="line"/>
      <point x="446" y="720" type="line"/>
      <point x="538" y="441" type="line"/>
      <point x="541" y="441" type="line"/>
      <point x="633" y="720" type="line"/>
      <point x="717" y="720" type="line"/>
    </contour>
    <contour>
      <point x="300" y="675" type="line"/>
      <point x="194" y="675" type="line"/>
      <point x="194" y="381" type="line"/>
      <point x="139" y="381" type="line"/>
      <point x="139" y="675" type="line"/>
      <point x="33" y="675" type="line"/>
      <point x="33" y="720" type="line"/>
      <point x="300" y="720" type="line"/>
    </contour>
  </outline>
</glyph>
<glyph name="minus" format="1">
  <advance width="600"/>
  <unicode hex="2212"/>
  <outline>
    <contour>
      <point x="556" y="315" type="line"/>
      <point x="44" y="315" type="line"/>
      <point x="44" y="395" type="line"/>
      <point x="556" y="395" type="line"/>
    </contour>
  </outline>
</glyph>
<glyph name="apple" format="1">
  <advance width="500"/>
  <unicode hex="F8FF"/>
  <outline>
    <contour>
      <point x="465" y="182" type="line"/>
      <point x="436" y="100" type="line"/>
      <point x="267" y="184" type="line"/>
      <point x="294" y="0" type="line"/>
      <point x="206" y="0" type="line"/>
      <point x="233" y="184" type="line"/>
      <point x="64" y="100" type="line"/>
      <point x="35" y="182" type="line"/>
      <point x="220" y="215" type="line"/>
      <point x="82" y="357" type="line"/>
      <point x="82" y="363" type="line"/>
      <point x="220" y="505" type="line"/>
      <point x="35" y="538" type="line"/>
      <point x="64" y="620" type="line"/>
      <point x="233" y="536" type="line"/>
      <point x="206" y="720" type="line"/>
      <point x="294" y="720" type="line"/>
      <point x="267" y="536" type="line"/>
      <point x="436" y="620" type="line"/>
      <point x="465" y="538" type="line"/>
      <point x="280" y="505" type="line"/>
      <point x="418" y="363" type="line"/>
      <point x="418" y="357" type="line"/>
      <point x="280" y="215" type="line"/>
    </contour>
    <contour>
      <point x="334" y="360" type="line"/>
      <point x="250" y="493" type="line"/>
      <point x="166" y="360" type="line"/>
      <point x="250" y="227" type="line"/>
    </contour>
  </outline>
</glyph>
<glyph name="fi" format="1">
  <advance width="574"/>
  <unicode hex="FB01"/>
  <outline>
    <contour>
      <point x="507" y="630" type="line"/>
      <point x="406" y="630" type="line"/>
      <point x="406" y="723" type="line"/>
      <point x="507" y="723" type="line"/>
    </contour>
    <contour>
      <point x="352" y="681" type="line"/>
      <point x="331" y="691"/>
      <point x="308" y="698"/>
      <point x="273" y="698" type="curve" smooth="yes"/>
      <point x="228" y="698"/>
      <point x="204" y="672"/>
      <point x="204" y="616" type="curve" smooth="yes"/>
      <point x="204" y="517" type="line"/>
      <point x="332" y="517" type="line"/>
      <point x="332" y="455" type="line"/>
      <point x="204" y="455" type="line"/>
      <point x="204" y="0" type="line"/>
      <point x="117" y="0" type="line"/>
      <point x="117" y="455" type="line"/>
      <point x="16" y="455" type="line"/>
      <point x="16" y="517" type="line"/>
      <point x="117" y="517" type="line"/>
      <point x="117" y="613" type="line" smooth="yes"/>
      <point x="117" y="710"/>
      <point x="171" y="759"/>
      <point x="260" y="759" type="curve" smooth="yes"/>
      <point x="302" y="759"/>
      <point x="328" y="754"/>
      <point x="352" y="747" type="curve"/>
    </contour>
    <contour>
      <point x="500" y="0" type="line"/>
      <point x="413" y="0" type="line"/>
      <point x="413" y="521" type="line"/>
      <point x="500" y="521" type="line"/>
    </contour>
  </outline>
</glyph>
<glyph name="f_f_i" format="1">
  <advance width="869"/>
  <unicode hex="FB03"/>
  <outline>
    <contour>
      <point x="803" y="630" type="line"/>
      <point x="702" y="630" type="line"/>
      <point x="702" y="723" type="line"/>
      <point x="803" y="723" type="line"/>
    </contour>
    <contour>
      <point x="648" y="681" type="line"/>
      <point x="627" y="691"/>
      <point x="603" y="698"/>
      <point x="569" y="698" type="curve" smooth="yes"/>
      <point x="524" y="698"/>
      <point x="499" y="672"/>
      <point x="499" y="616" type="curve" smooth="yes"/>
      <point x="499" y="517" type="line"/>
      <point x="628" y="517" type="line"/>
      <point x="628" y="455" type="line"/>
      <point x="499" y="455" type="line"/>
      <point x="499" y="0" type="line"/>
      <point x="413" y="0" type="line"/>
      <point x="413" y="455" type="line"/>
      <point x="204" y="455" type="line"/>
      <point x="204" y="0" type="line"/>
      <point x="117" y="0" type="line"/>
      <point x="117" y="455" type="line"/>
      <point x="16" y="455" type="line"/>
      <point x="16" y="517" type="line"/>
      <point x="117" y="517" type="line"/>
      <point x="117" y="613" type="line" smooth="yes"/>
      <point x="117" y="710"/>
      <point x="171" y="759"/>
      <point x="260" y="759" type="curve" smooth="yes"/>
      <point x="302" y="759"/>
      <point x="328" y="754"/>
      <point x="352" y="747" type="curve"/>
      <point x="352" y="681" type="line"/>
      <point x="331" y="691"/>
      <point x="308" y="698"/>
      <point x="273" y="698" type="curve" smooth="yes"/>
      <point x="228" y="698"/>
      <point x="204" y="672"/>
      <point x="204" y="616" type="curve" smooth="yes"/>
      <point x="204" y="517" type="line"/>
      <point x="413" y="517" type="line"/>
      <point x="413" y="613" type="line" smooth="yes"/>
      <point x="413" y="710"/>
      <point x="467" y="759"/>
      <point x="555" y="759" type="curve" smooth="yes"/>
      <point x="598" y="759"/>
      <point x="623" y="754"/>
      <point x="648" y="747" type="curve"/>
    </contour>
    <contour>
      <point x="796" y="0" type="line"/>
      <point x="709" y="0" type="line"/>
      <point x="709" y="521" type="line"/>
      <point x="796" y="521" type="line"/>
    </contour>
  </outline>
</glyph>
<glyph name="I.salt" format="1">
  <advance width="264"/>
  <outline>
    <contour>
      <point x="179" y="0" type="line"/>
      <point x="85" y="0" type="line"/>
      <point x="85" y="720" type="line"/>
      <point x="179" y="720" type="line"/>
    </contour>
  </outline>
</glyph>
<glyph name="macron" format="1">
  <advance width="500"/>
  <outline>
    <contour>
      <point x="392" y="629" type="line"/>
      <point x="108" y="629" type="line"/>
      <point x="108" y="691" type="line"/>
      <point x="392" y="691" type="line"/>
    </contour>
  </outline>
</glyph>
<glyph name="registered" format="1">
  <advance width="523"/>
  <outline>
    <contour>
      <point x="485" y="504" type="curve" smooth="yes"/>
      <point x="485" y="377"/>
      <point x="388" y="281"/>
      <point x="261" y="281" type="curve" smooth="yes"/>
      <point x="135" y="281"/>
      <point x="39" y="376"/>
      <point x="39" y="504" type="curve" smooth="yes"/>
      <point x="39" y="630"/>
      <point x="135" y="727"/>
      <point x="262" y="727" type="curve" smooth="yes"/>
      <point x="388" y="727"/>
      <point x="485" y="631"/>
    </contour>
    <contour>
      <point x="458" y="504" type="curve" smooth="yes"/>
      <point x="458" y="617"/>
      <point x="375" y="703"/>
      <point x="261" y="703" type="curve" smooth="yes"/>
      <point x="148" y="703"/>
      <point x="64" y="618"/>
      <point x="64" y="504" type="curve" smooth="yes"/>
      <point x="64" y="390"/>
      <point x="148" y="304"/>
      <point x="262" y="304" type="curve" smooth="yes"/>
      <point x="375" y="304"/>
      <point x="458" y="390"/>
    </contour>
    <contour>
      <point x="369" y="381" type="line"/>
      <point x="318" y="381" type="line"/>
      <point x="252" y="485" type="line"/>
      <point x="228" y="485" type="line"/>
      <point x="228" y="381" type="line"/>
      <point x="181" y="381" type="line"/>
      <point x="181" y="633" type="line"/>
      <point x="267" y="633" type="line" smooth="yes"/>
      <point x="321" y="633"/>
      <point x="356" y="608"/>
      <point x="356" y="559" type="curve" smooth="yes"/>
      <point x="356" y="523"/>
      <point x="334" y="499"/>
      <point x="299" y="490" type="curve"/>
    </contour>
    <contour>
      <point x="311" y="559" type="curve" smooth="yes"/>
      <point x="311" y="584"/>
      <point x="294" y="598"/>
      <point x="264" y="598" type="curve" smooth="yes"/>
      <point x="226" y="598" type="line"/>
      <point x="226" y="520" type="line"/>
      <point x="264" y="520" type="line" smooth="yes"/>
      <point x="294" y="520"/>
      <point x="311" y="533"/>
    </contour>
  </outline>
</glyph>
